<?xml version="1.0" encoding="utf-8"?>
<!-- Generator: Adobe Illustrator 17.0.0, SVG Export Plug-In . SVG Version: 6.00 Build 0)  -->
<!DOCTYPE svg PUBLIC "-//W3C//DTD SVG 1.1//EN" "http://www.w3.org/Graphics/SVG/1.1/DTD/svg11.dtd">
<svg version="1.1" id="Layer_1" xmlns="http://www.w3.org/2000/svg" xmlns:xlink="http://www.w3.org/1999/xlink" x="0px" y="0px"
	 width="150px" height="150px" viewBox="0 0 150 150" enable-background="new 0 0 150 150" xml:space="preserve">
<g>
	<g>
		<g>
			<g>
				<g>
					<g>
						<path fill="#006DB7" d="M129.665,92.898c-0.744-1.065-1.77-2.9-2.03-3.509c-14.16-33.207,12.369-57.771,12.369-57.771
							s-7.302-3.396-10.529-11.887c0,0-41.5,3.54-54.047-17.289c-0.034-0.065-0.068-0.113-0.102-0.163
							c-0.008-0.013-0.017-0.026-0.024-0.039v0.006C75.196,2.098,75.09,2,74.982,2c-0.182,0-0.361,0.234-0.536,0.645
							C61.75,23.246,20.525,19.73,20.525,19.73C17.298,28.221,9.996,31.618,9.996,31.618s26.529,24.564,12.369,57.771
							c-0.26,0.609-1.286,2.444-2.03,3.509c-4.807,6.88-21.27,32.847,0.634,37.377c1.11,0.23,4.476,0.449,7.087,0.308
							c9.921-0.538,38.295-0.101,45.934,15.909c0.281,1.249,0.573,1.969,0.874,2.121c0.001,0.004,0.003,0.007,0.004,0.011v-0.009
							c0.038,0.019,0.076,0.052,0.114,0.052c0.051,0,0.101-0.036,0.151-0.068v0.026c0.004-0.011,0.008-0.021,0.012-0.031
							c0.272-0.191,0.538-0.86,0.794-1.957c7.535-16.153,36.055-16.593,46.006-16.053c2.611,0.141,5.977-0.078,7.087-0.308
							C150.935,125.744,134.472,99.778,129.665,92.898z"/>
					</g>
				</g>
				<g>
					<path fill="#FFFFFF" d="M125.983,92.078c-0.615-1.053-1.361-2.686-1.587-3.265c-7.965-20.425-1.024-36.536,4.325-46.468H20.907
						c6.317,9.281,13.361,26.149,4.697,46.468c-0.244,0.572-1.069,2.584-1.767,3.584c-1.648,2.358-4.889,6.818-7.168,12.103h116.663
						C131.053,99.215,127.64,94.917,125.983,92.078z"/>
				</g>
			</g>
			<g>
				<g>
					<rect x="74.491" y="38.397" fill="#006DB7" width="1.019" height="70.815"/>
				</g>
				<g>
					<rect x="27.832" y="73.296" fill="#006DB7" width="94.336" height="1.019"/>
				</g>
				<g>
					<rect x="58.825" y="64.635" fill="#FFFFFF" width="32.351" height="18.341"/>
					<path fill="#006DB7" d="M91.685,83.485h-33.37v-19.36h33.37V83.485z M59.334,82.466h31.332V65.144H59.334V82.466z"/>
				</g>
			</g>
		</g>
		<g>
			<path fill="#27AAE1" d="M87.715,58.863H76.73V47.878h10.985V58.863z M77.749,57.844h8.947v-8.947h-8.947V57.844z"/>
		</g>
		<g>
			<rect x="81.793" y="57.971" fill="#27AAE1" width="1.019" height="5.954"/>
		</g>
		<g>
			<path fill="#27AAE1" d="M103.222,63.161h-11.59V43.738h11.59V63.161z M92.651,62.143h9.552V44.757h-9.552V62.143z"/>
		</g>
		<g>
			<path fill="#27AAE1" d="M117.487,63.161h-11.59v-7.588l10.655-11.836h0.935V63.161z M106.916,62.143h9.552V45.354l-9.552,10.611
				V62.143z"/>
		</g>
		<g>
			<g>
				<g>
					<path fill="#1C75BC" d="M102.702,96.117c-5.244,0-9.51-4.266-9.51-9.51s4.266-9.51,9.51-9.51s9.51,4.266,9.51,9.51
						S107.946,96.117,102.702,96.117z M102.702,83.211c-1.873,0-3.397,1.524-3.397,3.397c0,1.873,1.524,3.396,3.397,3.396
						c1.873,0,3.396-1.523,3.396-3.396C106.098,84.735,104.575,83.211,102.702,83.211z"/>
				</g>
			</g>
			<g>
				<g>
					<path fill="#27AAE1" d="M102.702,93.188c-3.628,0-6.581-2.952-6.581-6.581c0-3.628,2.952-6.58,6.581-6.58
						c3.628,0,6.58,2.952,6.58,6.58C109.282,90.236,106.331,93.188,102.702,93.188z M102.702,80.536
						c-3.348,0-6.071,2.723-6.071,6.071c0,3.348,2.723,6.071,6.071,6.071c3.347,0,6.071-2.723,6.071-6.071
						C108.773,83.26,106.049,80.536,102.702,80.536z"/>
				</g>
			</g>
		</g>
		<g>
			<g>
				<g>
					<path fill="#1C75BC" d="M114.213,102.326c-3.55,0-6.437-2.887-6.437-6.437c0-3.55,2.888-6.437,6.437-6.437
						s6.437,2.888,6.437,6.437C120.65,99.439,117.762,102.326,114.213,102.326z M114.213,93.59c-1.268,0-2.299,1.032-2.299,2.299
						s1.032,2.299,2.299,2.299s2.299-1.031,2.299-2.299S115.48,93.59,114.213,93.59z"/>
				</g>
			</g>
			<g>
				<g>
					<path fill="#27AAE1" d="M114.213,100.343c-2.456,0-4.454-1.998-4.454-4.454c0-2.456,1.998-4.454,4.454-4.454
						c2.456,0,4.454,1.998,4.454,4.454C118.667,98.345,116.669,100.343,114.213,100.343z M114.213,91.78
						c-2.266,0-4.11,1.843-4.11,4.109c0,2.266,1.843,4.11,4.11,4.11c2.266,0,4.109-1.843,4.109-4.11
						C118.322,93.623,116.479,91.78,114.213,91.78z"/>
				</g>
			</g>
		</g>
		<g>
			<g>
				<path fill="#27AAE1" d="M59.722,87.919h-3.204l-1.264,10.635h-0.006v3.125h1.355v-3.077h3.019v3.077h1.355v-3.077h0.013
					L59.722,87.919z M59.189,96.804c-0.031,0.059-0.078,0.093-0.127,0.093h-1.971c-0.05,0-0.097-0.036-0.128-0.096
					c-0.031-0.061-0.043-0.14-0.032-0.216l1.059-7.381c0.017-0.117,0.084-0.2,0.16-0.2c0,0,0.002,0,0.003,0
					c0.078,0.002,0.144,0.089,0.159,0.208l0.913,7.381C59.233,96.668,59.22,96.745,59.189,96.804z"/>
			</g>
			<g>
				<path fill="#1C75BC" d="M59.68,87.236c-0.13-1.079-0.777-1.902-1.56-1.902c-0.784,0-1.431,0.822-1.561,1.902
					c-1.35,0.116-2.293,0.378-2.293,0.683c0,0.315,1.004,0.584,2.424,0.694l0,0h2.86l0,0c1.42-0.11,2.424-0.379,2.424-0.694
					C61.973,87.614,61.03,87.352,59.68,87.236z"/>
			</g>
		</g>
		<g>
			<g>
				<g>
					<path fill="#1C75BC" d="M80.579,81.387l-18.313-13.4h25.126L80.579,81.387z M68.502,70.024l11.347,8.303l4.22-8.303H68.502z"/>
				</g>
			</g>
			<g>
				<polygon fill="#27AAE1" points="85.523,71.663 87.392,67.986 62.266,67.986 67.291,71.663 				"/>
			</g>
		</g>
		<g>
			<g>
				<g>
					<path fill="#1E1E1E" d="M55.188,89.039c-9.665,0-13.607-8.654-13.653-8.759l0.233-0.102c0.014,0.031,1.398,3.116,4.508,5.567
						c2.865,2.257,7.828,4.421,15.204,1.92l0.082,0.241C59.207,88.705,57.087,89.039,55.188,89.039z"/>
				</g>
			</g>
			<g>
				<g>
					<path fill="#1E1E1E" d="M53.151,89.039c-9.665,0-13.607-8.654-13.653-8.759l0.233-0.102c0.014,0.031,1.398,3.116,4.508,5.567
						c2.866,2.257,7.829,4.421,15.204,1.92l0.082,0.241C57.17,88.705,55.049,89.039,53.151,89.039z"/>
				</g>
			</g>
			<g>
				<g>
					<path fill="#1E1E1E" d="M48.346,89.111c-4.511,0-7.751-1.558-9.885-3.153c-3.355-2.506-4.777-5.646-4.791-5.678l0.233-0.103
						c0.014,0.031,1.414,3.118,4.72,5.584c3.048,2.274,8.389,4.47,16.53,2.019l0.074,0.244
						C52.666,88.795,50.377,89.111,48.346,89.111z"/>
				</g>
			</g>
			<g>
				<g>
					<path fill="#1E1E1E" d="M50.467,89.057c-10.439,0-14.646-8.67-14.695-8.774l0.231-0.108c0.014,0.031,1.471,3.08,4.768,5.526
						c3.038,2.255,8.314,4.446,16.18,2.08l0.074,0.244C54.611,88.751,52.428,89.057,50.467,89.057z"/>
				</g>
			</g>
		</g>
		<g>
			<g>
				<path fill="#27AAE1" d="M39.558,80.462h-4.327l-1.707,14.364h-0.008v4.221h1.831v-4.156h4.077v4.156h1.831v-4.156h0.018
					L39.558,80.462z M38.839,92.463c-0.042,0.08-0.105,0.126-0.171,0.126h-2.663c-0.067,0-0.131-0.048-0.173-0.13
					c-0.042-0.082-0.058-0.189-0.043-0.292l1.43-9.97c0.023-0.158,0.113-0.271,0.217-0.271c0,0,0.002,0,0.003,0
					c0.105,0.003,0.195,0.12,0.215,0.281l1.232,9.97C38.898,92.278,38.881,92.383,38.839,92.463z"/>
			</g>
			<g>
				<path fill="#1C75BC" d="M39.502,79.539c-0.175-1.458-1.049-2.569-2.108-2.569c-1.058,0-1.932,1.111-2.108,2.569
					c-1.824,0.157-3.097,0.511-3.097,0.923c0,0.425,1.356,0.788,3.274,0.937l0,0.001h3.863l0-0.001
					c1.917-0.149,3.273-0.512,3.273-0.937C42.599,80.05,41.326,79.696,39.502,79.539z"/>
			</g>
		</g>
		<g>
			<g>
				<polygon fill="#FFFFFF" points="42.064,51.051 42.268,50.16 43.775,50.096 44.414,48.341 45.729,47.437 46.948,47.605 
					48.538,48.328 49.004,49.154 49.492,50.289 50.622,50.096 51.178,50.199 51.205,51.36 50.852,52.651 50.702,53.915 
					49.96,55.193 48.45,56.251 46.021,57 44.458,56.561 43.398,55.425 42.577,53.696 				"/>
			</g>
			<g>
				<g>
					<path fill="#1C75BC" d="M46.635,58.148c-2.941,0-5.334-3.265-5.334-7.278c0-0.302,0.014-0.607,0.041-0.906l0.632,0.105
						l0.629,0.138c-0.02,0.22-0.03,0.442-0.03,0.663c0,2.989,1.822,5.42,4.062,5.42c2.24,0,4.063-2.431,4.063-5.42
						c0-0.224-0.01-0.449-0.031-0.67l1.26-0.248c0.028,0.302,0.042,0.612,0.042,0.918C51.969,54.883,49.576,58.148,46.635,58.148z"
						/>
				</g>
			</g>
			<g>
				<g>
					<g>
						<polygon fill="#27AAE1" points="45.115,56.703 43.01,70.033 50.26,70.033 48.155,56.703 						"/>
					</g>
				</g>
				<g>
					<g>
						<path fill="#1C75BC" d="M51.059,70.963H42.21l2.398-15.189h4.052L51.059,70.963z M43.809,69.104h5.652l-1.812-11.472H45.62
							L43.809,69.104z"/>
					</g>
				</g>
			</g>
			<g>
				<path fill="#00AEEF" d="M50.481,49.192c-0.425,0-0.826,0.032-1.18,0.088c0-0.01,0.001-0.02,0.001-0.03
					c0-2.042-1.194-3.697-2.667-3.697s-2.667,1.655-2.667,3.697c0,0.01,0.001,0.02,0.001,0.03c-0.354-0.056-0.755-0.088-1.18-0.088
					c-1.434,0-2.596,0.358-2.596,0.8c0,0.442,1.162,0.8,2.596,0.8c0.474,0,0.914-0.041,1.296-0.109
					c0.334-1.513,1.349-2.614,2.55-2.614s2.216,1.101,2.55,2.614c0.382,0.068,0.822,0.109,1.296,0.109
					c1.434,0,2.596-0.358,2.596-0.8C53.077,49.551,51.915,49.192,50.481,49.192z"/>
			</g>
		</g>
	</g>
	<g>
		<path fill="#FFFFFF" d="M61.327,19.167l0.071,1.507h-0.18c-0.035-0.265-0.082-0.455-0.142-0.568
			c-0.098-0.183-0.229-0.318-0.391-0.406c-0.163-0.087-0.377-0.13-0.642-0.13h-0.905v4.908c0,0.395,0.043,0.642,0.129,0.739
			c0.12,0.133,0.305,0.199,0.554,0.199h0.223v0.175h-2.725v-0.175h0.227c0.272,0,0.464-0.082,0.578-0.247
			c0.069-0.101,0.104-0.332,0.104-0.692V19.57h-0.773c-0.3,0-0.513,0.022-0.64,0.066c-0.164,0.06-0.305,0.175-0.421,0.346
			c-0.117,0.17-0.187,0.401-0.208,0.692h-0.18l0.076-1.507H61.327z"/>
		<path fill="#FFFFFF" d="M65.302,23.442h-2.487l-0.436,1.013c-0.107,0.25-0.162,0.436-0.162,0.559c0,0.098,0.047,0.184,0.14,0.258
			c0.093,0.075,0.295,0.123,0.604,0.144v0.175h-2.023v-0.175c0.268-0.047,0.442-0.109,0.521-0.185
			c0.162-0.152,0.34-0.46,0.535-0.924l2.26-5.288h0.166l2.236,5.345c0.181,0.429,0.344,0.708,0.491,0.836
			c0.147,0.128,0.351,0.2,0.614,0.216v0.175h-2.535v-0.175c0.256-0.013,0.429-0.055,0.519-0.128c0.09-0.073,0.135-0.161,0.135-0.265
			c0-0.139-0.063-0.359-0.189-0.659L65.302,23.442z M65.17,23.091l-1.09-2.597l-1.118,2.597H65.17z"/>
		<path fill="#FFFFFF" d="M73.827,19.02l0.166,2.028h-0.166c-0.167-0.506-0.384-0.886-0.649-1.142
			c-0.382-0.37-0.873-0.555-1.474-0.555c-0.818,0-1.44,0.324-1.867,0.971c-0.357,0.547-0.535,1.197-0.535,1.952
			c0,0.613,0.119,1.172,0.355,1.677c0.237,0.505,0.547,0.876,0.931,1.111c0.384,0.235,0.778,0.353,1.182,0.353
			c0.237,0,0.466-0.03,0.687-0.09c0.221-0.06,0.435-0.149,0.64-0.266v-1.857c0-0.322-0.024-0.533-0.073-0.632
			c-0.049-0.1-0.125-0.175-0.227-0.227c-0.103-0.052-0.284-0.078-0.543-0.078v-0.18h2.488v0.18h-0.119
			c-0.247,0-0.415,0.082-0.507,0.247c-0.063,0.117-0.095,0.347-0.095,0.692v1.966c-0.363,0.196-0.721,0.34-1.075,0.431
			c-0.353,0.092-0.747,0.138-1.18,0.138c-1.242,0-2.185-0.398-2.829-1.194c-0.483-0.597-0.725-1.286-0.725-2.066
			c0-0.566,0.136-1.107,0.407-1.625c0.322-0.616,0.765-1.09,1.327-1.422c0.471-0.275,1.027-0.412,1.668-0.412
			c0.233,0,0.446,0.019,0.637,0.057c0.191,0.038,0.462,0.122,0.813,0.251c0.177,0.067,0.295,0.1,0.355,0.1s0.111-0.028,0.154-0.083
			c0.043-0.055,0.069-0.164,0.078-0.324H73.827z"/>
		<path fill="#FFFFFF" d="M78.427,19.02c0.834,0,1.557,0.317,2.168,0.95c0.611,0.633,0.917,1.424,0.917,2.371
			c0,0.977-0.308,1.787-0.924,2.431c-0.616,0.644-1.362,0.967-2.237,0.967c-0.884,0-1.627-0.315-2.229-0.943
			c-0.601-0.629-0.903-1.442-0.903-2.44c0-1.02,0.347-1.853,1.042-2.497C76.865,19.3,77.587,19.02,78.427,19.02z M78.338,19.367
			c-0.575,0-1.037,0.213-1.384,0.64c-0.433,0.531-0.649,1.308-0.649,2.331c0,1.049,0.224,1.856,0.673,2.421
			c0.345,0.43,0.799,0.645,1.365,0.645c0.603,0,1.102-0.235,1.495-0.706c0.394-0.471,0.59-1.213,0.59-2.227
			c0-1.099-0.216-1.919-0.649-2.459C79.43,19.581,78.95,19.367,78.338,19.367z"/>
		<path fill="#FFFFFF" d="M88.444,25.592h-1.715l-2.175-3.004c-0.162,0.007-0.292,0.009-0.394,0.009
			c-0.041,0-0.085-0.001-0.133-0.002c-0.047-0.002-0.096-0.004-0.147-0.007v1.867c0,0.405,0.044,0.655,0.133,0.754
			c0.12,0.139,0.3,0.208,0.54,0.208h0.251v0.175h-2.753v-0.175h0.241c0.272,0,0.466-0.088,0.583-0.265
			c0.066-0.098,0.1-0.33,0.1-0.697v-4.151c0-0.404-0.044-0.655-0.133-0.753c-0.123-0.139-0.307-0.208-0.55-0.208h-0.241v-0.175h2.34
			c0.682,0,1.186,0.049,1.509,0.149c0.324,0.1,0.599,0.283,0.825,0.55c0.226,0.267,0.338,0.585,0.338,0.955
			c0,0.395-0.129,0.737-0.386,1.028c-0.258,0.291-0.657,0.496-1.197,0.616l1.327,1.844c0.303,0.423,0.564,0.704,0.782,0.843
			c0.218,0.139,0.502,0.227,0.853,0.265V25.592z M83.881,22.29c0.06,0,0.112,0.001,0.156,0.003c0.044,0.001,0.081,0.003,0.109,0.003
			c0.613,0,1.075-0.133,1.386-0.398c0.311-0.266,0.466-0.603,0.466-1.014c0-0.401-0.125-0.727-0.377-0.979s-0.584-0.377-0.997-0.377
			c-0.183,0-0.431,0.03-0.744,0.09V22.29z"/>
		<path fill="#FFFFFF" d="M90.388,19.518v2.539H91.8c0.367,0,0.611-0.055,0.735-0.166c0.164-0.146,0.256-0.402,0.275-0.768h0.175
			v2.236h-0.175c-0.044-0.313-0.089-0.513-0.133-0.601c-0.057-0.111-0.15-0.198-0.28-0.26c-0.129-0.063-0.328-0.095-0.597-0.095
			h-1.412v2.118c0,0.284,0.013,0.457,0.038,0.519c0.025,0.061,0.069,0.111,0.133,0.147s0.183,0.054,0.36,0.054h1.09
			c0.363,0,0.627-0.025,0.791-0.076c0.164-0.05,0.322-0.15,0.474-0.298c0.196-0.196,0.396-0.491,0.602-0.886h0.189l-0.555,1.611
			h-4.951v-0.175h0.227c0.152,0,0.295-0.036,0.431-0.109c0.101-0.051,0.169-0.127,0.206-0.227c0.036-0.101,0.055-0.308,0.055-0.62
			v-4.175c0-0.407-0.041-0.659-0.123-0.754c-0.113-0.126-0.303-0.189-0.568-0.189h-0.227v-0.175h4.951l0.071,1.407h-0.185
			c-0.067-0.338-0.14-0.57-0.22-0.696c-0.081-0.127-0.2-0.223-0.358-0.289c-0.127-0.047-0.349-0.071-0.668-0.071H90.388z"/>
		<path fill="#FFFFFF" d="M20.837,31.163v2.539h1.412c0.367,0,0.611-0.055,0.735-0.166c0.164-0.146,0.256-0.402,0.275-0.768h0.175
			v2.236h-0.175c-0.044-0.313-0.089-0.513-0.133-0.601c-0.057-0.111-0.15-0.198-0.28-0.26c-0.129-0.063-0.328-0.095-0.597-0.095
			h-1.412v2.118c0,0.284,0.013,0.457,0.038,0.519c0.025,0.061,0.069,0.111,0.133,0.147c0.063,0.036,0.183,0.054,0.36,0.054h1.09
			c0.363,0,0.627-0.025,0.791-0.076c0.164-0.05,0.322-0.15,0.474-0.298c0.196-0.196,0.396-0.491,0.602-0.886h0.189l-0.555,1.611
			h-4.951v-0.175h0.227c0.152,0,0.295-0.036,0.431-0.109c0.101-0.051,0.169-0.127,0.206-0.227s0.055-0.308,0.055-0.62V31.93
			c0-0.407-0.041-0.659-0.123-0.754c-0.113-0.126-0.303-0.189-0.568-0.189h-0.227v-0.175h4.951l0.071,1.407h-0.185
			c-0.067-0.338-0.14-0.57-0.22-0.696c-0.081-0.127-0.2-0.223-0.358-0.289c-0.127-0.047-0.349-0.071-0.668-0.071H20.837z"/>
		<path fill="#FFFFFF" d="M24.608,30.812h1.743l3.929,4.819v-3.706c0-0.394-0.045-0.641-0.133-0.739
			c-0.117-0.133-0.301-0.198-0.554-0.198H29.37v-0.175h2.237v0.175h-0.227c-0.272,0-0.464,0.082-0.578,0.246
			c-0.069,0.102-0.104,0.332-0.104,0.692v5.416h-0.171l-4.236-5.174v3.956c0,0.395,0.043,0.642,0.128,0.739
			c0.12,0.133,0.305,0.199,0.555,0.199H27.2v0.175h-2.237v-0.175h0.223c0.274,0,0.469-0.082,0.583-0.247
			c0.069-0.101,0.104-0.332,0.104-0.692v-4.468c-0.187-0.218-0.328-0.362-0.425-0.431c-0.096-0.069-0.237-0.135-0.424-0.195
			c-0.092-0.028-0.23-0.042-0.417-0.042V30.812z"/>
		<path fill="#FFFFFF" d="M37.7,30.665l0.166,2.028H37.7c-0.167-0.506-0.384-0.886-0.649-1.142c-0.382-0.37-0.873-0.555-1.474-0.555
			c-0.818,0-1.44,0.324-1.867,0.971c-0.357,0.547-0.535,1.197-0.535,1.952c0,0.613,0.119,1.172,0.355,1.677
			c0.237,0.505,0.547,0.876,0.931,1.111c0.384,0.235,0.778,0.353,1.182,0.353c0.237,0,0.466-0.03,0.687-0.09
			c0.221-0.06,0.435-0.149,0.64-0.266v-1.857c0-0.322-0.024-0.533-0.073-0.632c-0.049-0.1-0.125-0.175-0.227-0.227
			c-0.103-0.052-0.284-0.078-0.543-0.078v-0.18h2.488v0.18h-0.119c-0.247,0-0.415,0.082-0.507,0.247
			c-0.063,0.117-0.095,0.347-0.095,0.692v1.966c-0.363,0.196-0.721,0.34-1.075,0.431c-0.353,0.092-0.747,0.138-1.18,0.138
			c-1.242,0-2.185-0.398-2.829-1.194c-0.483-0.597-0.725-1.286-0.725-2.066c0-0.566,0.136-1.107,0.407-1.625
			c0.322-0.616,0.765-1.09,1.327-1.422c0.471-0.275,1.027-0.412,1.668-0.412c0.233,0,0.446,0.019,0.637,0.057
			c0.191,0.038,0.462,0.122,0.813,0.251c0.177,0.067,0.295,0.1,0.355,0.1c0.06,0,0.111-0.028,0.154-0.083
			c0.043-0.055,0.069-0.164,0.078-0.324H37.7z"/>
		<path fill="#FFFFFF" d="M41.747,37.062v0.175h-2.754v-0.175h0.227c0.266,0,0.458-0.077,0.578-0.232
			c0.076-0.101,0.114-0.344,0.114-0.73v-4.151c0-0.325-0.021-0.54-0.062-0.644c-0.032-0.079-0.096-0.147-0.194-0.204
			c-0.139-0.076-0.285-0.113-0.437-0.113h-0.227v-0.175h2.754v0.175h-0.233c-0.262,0-0.453,0.077-0.573,0.232
			c-0.079,0.101-0.119,0.344-0.119,0.729V36.1c0,0.326,0.02,0.541,0.062,0.645c0.032,0.078,0.098,0.146,0.199,0.204
			c0.135,0.076,0.279,0.113,0.431,0.113H41.747z"/>
		<path fill="#FFFFFF" d="M41.856,30.812h1.743l3.929,4.819v-3.706c0-0.394-0.045-0.641-0.133-0.739
			c-0.117-0.133-0.301-0.198-0.554-0.198h-0.223v-0.175h2.237v0.175h-0.227c-0.272,0-0.464,0.082-0.578,0.246
			c-0.069,0.102-0.104,0.332-0.104,0.692v5.416h-0.171l-4.236-5.174v3.956c0,0.395,0.043,0.642,0.128,0.739
			c0.12,0.133,0.305,0.199,0.555,0.199h0.227v0.175h-2.237v-0.175h0.223c0.274,0,0.469-0.082,0.583-0.247
			c0.069-0.101,0.104-0.332,0.104-0.692v-4.468c-0.187-0.218-0.328-0.362-0.425-0.431c-0.096-0.069-0.237-0.135-0.424-0.195
			c-0.092-0.028-0.23-0.042-0.417-0.042V30.812z"/>
		<path fill="#FFFFFF" d="M51.02,31.163v2.539h1.412c0.367,0,0.611-0.055,0.735-0.166c0.164-0.146,0.256-0.402,0.275-0.768h0.175
			v2.236h-0.175c-0.044-0.313-0.089-0.513-0.133-0.601c-0.057-0.111-0.15-0.198-0.28-0.26c-0.129-0.063-0.328-0.095-0.597-0.095
			H51.02v2.118c0,0.284,0.013,0.457,0.038,0.519c0.025,0.061,0.069,0.111,0.133,0.147c0.063,0.036,0.183,0.054,0.36,0.054h1.09
			c0.363,0,0.627-0.025,0.791-0.076c0.164-0.05,0.322-0.15,0.474-0.298c0.196-0.196,0.396-0.491,0.602-0.886h0.189l-0.555,1.611
			h-4.951v-0.175h0.227c0.152,0,0.295-0.036,0.431-0.109c0.101-0.051,0.169-0.127,0.206-0.227s0.055-0.308,0.055-0.62V31.93
			c0-0.407-0.041-0.659-0.123-0.754c-0.113-0.126-0.303-0.189-0.568-0.189h-0.227v-0.175h4.951l0.071,1.407h-0.185
			c-0.067-0.338-0.14-0.57-0.22-0.696c-0.081-0.127-0.2-0.223-0.358-0.289c-0.127-0.047-0.349-0.071-0.668-0.071H51.02z"/>
		<path fill="#FFFFFF" d="M56.947,31.163v2.539h1.412c0.367,0,0.611-0.055,0.735-0.166c0.164-0.146,0.256-0.402,0.275-0.768h0.175
			v2.236h-0.175c-0.044-0.313-0.089-0.513-0.133-0.601c-0.057-0.111-0.15-0.198-0.28-0.26c-0.129-0.063-0.328-0.095-0.597-0.095
			h-1.412v2.118c0,0.284,0.013,0.457,0.038,0.519c0.025,0.061,0.069,0.111,0.133,0.147c0.063,0.036,0.183,0.054,0.36,0.054h1.09
			c0.363,0,0.627-0.025,0.791-0.076c0.164-0.05,0.322-0.15,0.474-0.298c0.196-0.196,0.396-0.491,0.602-0.886h0.189l-0.555,1.611
			h-4.951v-0.175h0.227c0.152,0,0.295-0.036,0.431-0.109c0.101-0.051,0.169-0.127,0.206-0.227c0.036-0.101,0.055-0.308,0.055-0.62
			V31.93c0-0.407-0.041-0.659-0.123-0.754c-0.113-0.126-0.303-0.189-0.568-0.189h-0.227v-0.175h4.951l0.071,1.407h-0.185
			c-0.067-0.338-0.14-0.57-0.22-0.696c-0.081-0.127-0.2-0.223-0.358-0.289c-0.127-0.047-0.349-0.071-0.668-0.071H56.947z"/>
		<path fill="#FFFFFF" d="M67.404,37.237h-1.715l-2.175-3.004c-0.162,0.007-0.292,0.009-0.394,0.009
			c-0.041,0-0.085-0.001-0.133-0.002c-0.047-0.002-0.096-0.004-0.147-0.007V36.1c0,0.405,0.044,0.655,0.133,0.754
			c0.12,0.139,0.3,0.208,0.54,0.208h0.251v0.175h-2.753v-0.175h0.241c0.272,0,0.466-0.088,0.583-0.265
			c0.066-0.098,0.1-0.33,0.1-0.697v-4.151c0-0.404-0.044-0.655-0.133-0.753c-0.123-0.139-0.307-0.208-0.55-0.208h-0.241v-0.175h2.34
			c0.682,0,1.186,0.049,1.509,0.149c0.324,0.1,0.599,0.283,0.825,0.55c0.226,0.267,0.338,0.585,0.338,0.955
			c0,0.395-0.129,0.737-0.386,1.028c-0.258,0.291-0.657,0.496-1.197,0.616l1.327,1.844c0.303,0.423,0.564,0.704,0.782,0.843
			s0.502,0.227,0.853,0.265V37.237z M62.841,33.934c0.06,0,0.112,0.001,0.156,0.003c0.044,0.001,0.081,0.003,0.109,0.003
			c0.613,0,1.075-0.133,1.386-0.398c0.311-0.266,0.466-0.603,0.466-1.014c0-0.401-0.125-0.727-0.377-0.979s-0.584-0.377-0.997-0.377
			c-0.183,0-0.431,0.03-0.744,0.09V33.934z"/>
		<path fill="#FFFFFF" d="M70.314,37.062v0.175H67.56v-0.175h0.227c0.266,0,0.458-0.077,0.578-0.232
			c0.076-0.101,0.114-0.344,0.114-0.73v-4.151c0-0.325-0.021-0.54-0.062-0.644c-0.032-0.079-0.096-0.147-0.194-0.204
			c-0.139-0.076-0.285-0.113-0.437-0.113H67.56v-0.175h2.754v0.175h-0.233c-0.262,0-0.453,0.077-0.573,0.232
			c-0.079,0.101-0.119,0.344-0.119,0.729V36.1c0,0.326,0.02,0.541,0.062,0.645c0.032,0.078,0.098,0.146,0.199,0.204
			c0.135,0.076,0.279,0.113,0.431,0.113H70.314z"/>
		<path fill="#FFFFFF" d="M70.423,30.812h1.743l3.929,4.819v-3.706c0-0.394-0.045-0.641-0.133-0.739
			c-0.117-0.133-0.301-0.198-0.554-0.198h-0.223v-0.175h2.237v0.175h-0.227c-0.272,0-0.464,0.082-0.578,0.246
			c-0.069,0.102-0.104,0.332-0.104,0.692v5.416H76.34l-4.236-5.174v3.956c0,0.395,0.043,0.642,0.128,0.739
			c0.12,0.133,0.305,0.199,0.555,0.199h0.227v0.175h-2.237v-0.175h0.223c0.274,0,0.469-0.082,0.583-0.247
			c0.069-0.101,0.104-0.332,0.104-0.692v-4.468c-0.187-0.218-0.328-0.362-0.425-0.431c-0.096-0.069-0.237-0.135-0.424-0.195
			c-0.092-0.028-0.23-0.042-0.417-0.042V30.812z"/>
		<path fill="#FFFFFF" d="M83.514,30.665l0.166,2.028h-0.166c-0.167-0.506-0.384-0.886-0.649-1.142
			c-0.382-0.37-0.873-0.555-1.474-0.555c-0.818,0-1.44,0.324-1.867,0.971c-0.357,0.547-0.535,1.197-0.535,1.952
			c0,0.613,0.119,1.172,0.355,1.677c0.237,0.505,0.547,0.876,0.931,1.111s0.778,0.353,1.182,0.353c0.237,0,0.466-0.03,0.687-0.09
			c0.221-0.06,0.435-0.149,0.64-0.266v-1.857c0-0.322-0.024-0.533-0.073-0.632c-0.049-0.1-0.125-0.175-0.227-0.227
			c-0.103-0.052-0.284-0.078-0.543-0.078v-0.18h2.488v0.18H84.31c-0.247,0-0.415,0.082-0.507,0.247
			c-0.063,0.117-0.095,0.347-0.095,0.692v1.966c-0.363,0.196-0.721,0.34-1.075,0.431c-0.353,0.092-0.747,0.138-1.18,0.138
			c-1.242,0-2.185-0.398-2.829-1.194c-0.483-0.597-0.725-1.286-0.725-2.066c0-0.566,0.136-1.107,0.408-1.625
			c0.322-0.616,0.765-1.09,1.327-1.422c0.471-0.275,1.027-0.412,1.668-0.412c0.233,0,0.446,0.019,0.637,0.057
			c0.191,0.038,0.462,0.122,0.813,0.251c0.177,0.067,0.295,0.1,0.355,0.1s0.111-0.028,0.154-0.083
			c0.043-0.055,0.069-0.164,0.078-0.324H83.514z"/>
		<path fill="#FFFFFF" d="M92.834,30.665l0.147,2.185h-0.147c-0.196-0.654-0.475-1.125-0.839-1.412
			c-0.363-0.287-0.799-0.431-1.308-0.431c-0.427,0-0.812,0.109-1.156,0.325c-0.345,0.216-0.615,0.561-0.813,1.035
			c-0.197,0.473-0.296,1.063-0.296,1.767c0,0.582,0.093,1.085,0.28,1.512c0.187,0.426,0.467,0.753,0.841,0.98
			c0.374,0.227,0.801,0.341,1.281,0.341c0.417,0,0.785-0.089,1.104-0.268c0.319-0.178,0.669-0.533,1.052-1.064l0.147,0.095
			c-0.322,0.572-0.698,0.99-1.128,1.255c-0.43,0.266-0.94,0.398-1.53,0.398c-1.065,0-1.889-0.395-2.474-1.185
			c-0.436-0.588-0.653-1.279-0.653-2.075c0-0.642,0.144-1.23,0.431-1.768c0.287-0.537,0.683-0.953,1.187-1.248
			c0.504-0.295,1.054-0.443,1.651-0.443c0.464,0,0.922,0.113,1.374,0.341c0.133,0.07,0.227,0.104,0.284,0.104
			c0.086,0,0.16-0.03,0.223-0.09c0.082-0.085,0.14-0.204,0.175-0.355H92.834z"/>
		<path fill="#FFFFFF" d="M97.014,30.665c0.834,0,1.557,0.317,2.168,0.95c0.611,0.633,0.917,1.424,0.917,2.371
			c0,0.977-0.308,1.787-0.924,2.431c-0.616,0.644-1.362,0.967-2.237,0.967c-0.884,0-1.627-0.315-2.229-0.943
			c-0.601-0.629-0.903-1.442-0.903-2.44c0-1.02,0.347-1.853,1.042-2.497C95.452,30.945,96.174,30.665,97.014,30.665z M96.924,31.011
			c-0.575,0-1.037,0.213-1.384,0.64c-0.433,0.531-0.649,1.308-0.649,2.331c0,1.049,0.224,1.856,0.673,2.421
			c0.345,0.43,0.799,0.645,1.365,0.645c0.603,0,1.102-0.235,1.495-0.706c0.394-0.471,0.59-1.213,0.59-2.227
			c0-1.099-0.216-1.919-0.649-2.459C98.017,31.226,97.537,31.011,96.924,31.011z"/>
		<path fill="#FFFFFF" d="M106.036,35.46l0.157,0.034l-0.55,1.743h-4.975v-0.175h0.241c0.272,0,0.466-0.088,0.583-0.265
			c0.067-0.102,0.1-0.335,0.1-0.702v-4.146c0-0.401-0.044-0.652-0.133-0.753c-0.123-0.139-0.307-0.208-0.55-0.208h-0.241v-0.175
			h2.909v0.175c-0.342-0.003-0.58,0.028-0.718,0.094c-0.137,0.067-0.231,0.15-0.282,0.251c-0.051,0.102-0.076,0.343-0.076,0.725
			v4.037c0,0.262,0.025,0.442,0.076,0.54c0.038,0.067,0.096,0.115,0.175,0.147c0.079,0.032,0.326,0.047,0.739,0.047h0.469
			c0.493,0,0.839-0.036,1.038-0.109c0.198-0.073,0.38-0.202,0.545-0.386C105.707,36.15,105.871,35.858,106.036,35.46z"/>
		<path fill="#FFFFFF" d="M111.963,35.46l0.157,0.034l-0.55,1.743h-4.975v-0.175h0.241c0.272,0,0.466-0.088,0.583-0.265
			c0.067-0.102,0.1-0.335,0.1-0.702v-4.146c0-0.401-0.044-0.652-0.133-0.753c-0.123-0.139-0.307-0.208-0.55-0.208h-0.241v-0.175
			h2.909v0.175c-0.342-0.003-0.58,0.028-0.718,0.094c-0.137,0.067-0.231,0.15-0.282,0.251c-0.051,0.102-0.076,0.343-0.076,0.725
			v4.037c0,0.262,0.025,0.442,0.076,0.54c0.038,0.067,0.096,0.115,0.175,0.147c0.079,0.032,0.326,0.047,0.739,0.047h0.469
			c0.493,0,0.839-0.036,1.038-0.109c0.198-0.073,0.38-0.202,0.545-0.386C111.634,36.15,111.798,35.858,111.963,35.46z"/>
		<path fill="#FFFFFF" d="M114.356,31.163v2.539h1.412c0.367,0,0.611-0.055,0.735-0.166c0.164-0.146,0.256-0.402,0.275-0.768h0.175
			v2.236h-0.175c-0.044-0.313-0.089-0.513-0.133-0.601c-0.057-0.111-0.15-0.198-0.28-0.26c-0.129-0.063-0.328-0.095-0.597-0.095
			h-1.412v2.118c0,0.284,0.013,0.457,0.038,0.519c0.025,0.061,0.069,0.111,0.133,0.147s0.183,0.054,0.36,0.054h1.09
			c0.363,0,0.627-0.025,0.791-0.076c0.164-0.05,0.322-0.15,0.474-0.298c0.196-0.196,0.396-0.491,0.602-0.886h0.189l-0.555,1.611
			h-4.951v-0.175h0.227c0.152,0,0.295-0.036,0.431-0.109c0.101-0.051,0.169-0.127,0.206-0.227c0.036-0.101,0.055-0.308,0.055-0.62
			V31.93c0-0.407-0.041-0.659-0.123-0.754c-0.113-0.126-0.303-0.189-0.568-0.189h-0.227v-0.175h4.951l0.071,1.407h-0.185
			c-0.067-0.338-0.14-0.57-0.22-0.696c-0.081-0.127-0.2-0.223-0.358-0.289c-0.127-0.047-0.349-0.071-0.668-0.071H114.356z"/>
		<path fill="#FFFFFF" d="M124.212,30.665l0.166,2.028h-0.166c-0.167-0.506-0.384-0.886-0.649-1.142
			c-0.382-0.37-0.873-0.555-1.474-0.555c-0.818,0-1.44,0.324-1.867,0.971c-0.357,0.547-0.535,1.197-0.535,1.952
			c0,0.613,0.119,1.172,0.355,1.677c0.237,0.505,0.547,0.876,0.931,1.111s0.778,0.353,1.182,0.353c0.237,0,0.466-0.03,0.687-0.09
			c0.221-0.06,0.435-0.149,0.64-0.266v-1.857c0-0.322-0.024-0.533-0.073-0.632c-0.049-0.1-0.125-0.175-0.227-0.227
			c-0.103-0.052-0.284-0.078-0.543-0.078v-0.18h2.488v0.18h-0.119c-0.247,0-0.415,0.082-0.507,0.247
			c-0.063,0.117-0.095,0.347-0.095,0.692v1.966c-0.363,0.196-0.721,0.34-1.075,0.431c-0.353,0.092-0.747,0.138-1.18,0.138
			c-1.242,0-2.185-0.398-2.829-1.194c-0.483-0.597-0.725-1.286-0.725-2.066c0-0.566,0.136-1.107,0.407-1.625
			c0.322-0.616,0.765-1.09,1.327-1.422c0.471-0.275,1.027-0.412,1.668-0.412c0.233,0,0.446,0.019,0.637,0.057
			c0.191,0.038,0.462,0.122,0.813,0.251c0.177,0.067,0.295,0.1,0.355,0.1s0.111-0.028,0.154-0.083
			c0.043-0.055,0.069-0.164,0.078-0.324H124.212z"/>
		<path fill="#FFFFFF" d="M127.292,31.163v2.539h1.412c0.367,0,0.611-0.055,0.735-0.166c0.164-0.146,0.256-0.402,0.275-0.768h0.175
			v2.236h-0.175c-0.044-0.313-0.089-0.513-0.133-0.601c-0.057-0.111-0.15-0.198-0.28-0.26c-0.129-0.063-0.328-0.095-0.597-0.095
			h-1.412v2.118c0,0.284,0.013,0.457,0.038,0.519c0.025,0.061,0.069,0.111,0.133,0.147s0.183,0.054,0.36,0.054h1.09
			c0.363,0,0.627-0.025,0.791-0.076c0.164-0.05,0.322-0.15,0.474-0.298c0.196-0.196,0.396-0.491,0.602-0.886h0.189l-0.555,1.611
			h-4.951v-0.175h0.227c0.152,0,0.295-0.036,0.431-0.109c0.101-0.051,0.169-0.127,0.206-0.227c0.036-0.101,0.055-0.308,0.055-0.62
			V31.93c0-0.407-0.041-0.659-0.123-0.754c-0.113-0.126-0.303-0.189-0.568-0.189h-0.227v-0.175h4.951l0.071,1.407h-0.185
			c-0.067-0.338-0.14-0.57-0.22-0.696c-0.081-0.127-0.2-0.223-0.358-0.289c-0.127-0.047-0.349-0.071-0.668-0.071H127.292z"/>
	</g>
	<g>
		<path fill="#FFFFFF" d="M35.516,120.369l0.157,0.034l-0.55,1.743h-4.975v-0.175h0.241c0.272,0,0.466-0.088,0.583-0.265
			c0.067-0.102,0.1-0.335,0.1-0.702v-4.146c0-0.401-0.044-0.652-0.133-0.753c-0.123-0.139-0.307-0.208-0.55-0.208h-0.241v-0.175
			h2.909v0.175c-0.342-0.003-0.58,0.028-0.718,0.094c-0.137,0.067-0.231,0.15-0.282,0.251c-0.051,0.102-0.076,0.343-0.076,0.725
			v4.037c0,0.262,0.025,0.442,0.076,0.54c0.038,0.067,0.096,0.115,0.175,0.147c0.079,0.032,0.326,0.047,0.739,0.047h0.469
			c0.493,0,0.839-0.036,1.038-0.109c0.198-0.073,0.38-0.202,0.545-0.386S35.352,120.768,35.516,120.369z"/>
		<path fill="#FFFFFF" d="M40.321,119.995h-2.487l-0.436,1.013c-0.107,0.25-0.162,0.436-0.162,0.559c0,0.098,0.047,0.184,0.14,0.258
			c0.093,0.075,0.295,0.123,0.604,0.144v0.175h-2.023v-0.175c0.268-0.047,0.442-0.109,0.521-0.185
			c0.162-0.152,0.34-0.46,0.535-0.924l2.26-5.288h0.166l2.236,5.345c0.181,0.429,0.344,0.708,0.491,0.836
			c0.147,0.128,0.351,0.2,0.614,0.216v0.175h-2.535v-0.175c0.256-0.013,0.429-0.055,0.519-0.128c0.09-0.073,0.135-0.161,0.135-0.265
			c0-0.139-0.063-0.359-0.189-0.659L40.321,119.995z M40.189,119.645l-1.09-2.597l-1.118,2.597H40.189z"/>
		<path fill="#FFFFFF" d="M47.372,118.867c0.445,0.095,0.779,0.247,1,0.455c0.307,0.291,0.46,0.646,0.46,1.066
			c0,0.319-0.101,0.624-0.303,0.917c-0.202,0.293-0.479,0.506-0.831,0.64c-0.352,0.134-0.89,0.201-1.613,0.201H43.05v-0.175h0.242
			c0.268,0,0.461-0.085,0.578-0.256c0.073-0.111,0.109-0.346,0.109-0.706v-4.151c0-0.398-0.046-0.649-0.138-0.753
			c-0.123-0.139-0.306-0.208-0.549-0.208H43.05v-0.175h2.777c0.518,0,0.934,0.038,1.246,0.113c0.474,0.114,0.835,0.315,1.085,0.604
			c0.249,0.289,0.375,0.622,0.375,0.998c0,0.322-0.098,0.611-0.294,0.865C48.043,118.555,47.754,118.744,47.372,118.867z
			 M44.889,118.611c0.117,0.022,0.251,0.039,0.401,0.05c0.15,0.011,0.315,0.016,0.495,0.016c0.461,0,0.808-0.05,1.04-0.15
			c0.232-0.099,0.41-0.251,0.533-0.457c0.123-0.205,0.185-0.429,0.185-0.673c0-0.376-0.154-0.697-0.46-0.962
			c-0.307-0.266-0.754-0.398-1.341-0.398c-0.316,0-0.6,0.035-0.853,0.104V118.611z M44.889,121.682
			c0.367,0.085,0.729,0.128,1.085,0.128c0.572,0,1.008-0.129,1.308-0.386c0.301-0.257,0.45-0.576,0.45-0.955
			c0-0.249-0.068-0.489-0.204-0.72c-0.136-0.231-0.357-0.412-0.663-0.545c-0.307-0.133-0.686-0.198-1.137-0.198
			c-0.196,0-0.363,0.003-0.502,0.009c-0.139,0.007-0.251,0.017-0.337,0.033V121.682z"/>
		<path fill="#FFFFFF" d="M52.911,115.574c0.834,0,1.557,0.317,2.168,0.95c0.611,0.633,0.917,1.424,0.917,2.371
			c0,0.977-0.308,1.787-0.924,2.431c-0.616,0.644-1.362,0.967-2.237,0.967c-0.884,0-1.627-0.315-2.229-0.943
			c-0.601-0.629-0.903-1.442-0.903-2.44c0-1.02,0.347-1.853,1.042-2.497C51.349,115.854,52.071,115.574,52.911,115.574z
			 M52.821,115.921c-0.575,0-1.037,0.213-1.384,0.64c-0.433,0.531-0.649,1.308-0.649,2.331c0,1.049,0.224,1.856,0.673,2.421
			c0.345,0.43,0.799,0.645,1.365,0.645c0.603,0,1.102-0.235,1.495-0.706c0.394-0.471,0.59-1.213,0.59-2.227
			c0-1.099-0.216-1.919-0.649-2.459C53.914,116.135,53.434,115.921,52.821,115.921z"/>
		<path fill="#FFFFFF" d="M60.999,115.897v-0.175h2.274v0.175h-0.241c-0.253,0-0.447,0.106-0.583,0.317
			c-0.067,0.098-0.1,0.326-0.1,0.682v2.606c0,0.645-0.064,1.145-0.192,1.5c-0.128,0.355-0.379,0.66-0.754,0.914
			c-0.375,0.255-0.884,0.382-1.528,0.382c-0.702,0-1.234-0.122-1.597-0.365c-0.363-0.243-0.62-0.57-0.772-0.981
			c-0.102-0.281-0.152-0.808-0.152-1.583v-2.512c0-0.394-0.055-0.653-0.164-0.777c-0.109-0.123-0.286-0.185-0.528-0.185h-0.242
			v-0.175h2.777v0.175h-0.247c-0.265,0-0.454,0.084-0.568,0.251c-0.079,0.113-0.119,0.35-0.119,0.71v2.8
			c0,0.25,0.023,0.535,0.069,0.858c0.045,0.322,0.129,0.574,0.249,0.754s0.293,0.328,0.519,0.445
			c0.226,0.117,0.503,0.175,0.831,0.175c0.42,0,0.796-0.092,1.128-0.275c0.332-0.183,0.558-0.417,0.68-0.704
			c0.122-0.286,0.183-0.77,0.183-1.452v-2.602c0-0.401-0.044-0.652-0.133-0.753c-0.123-0.139-0.307-0.208-0.55-0.208H60.999z"/>
		<path fill="#FFFFFF" d="M69.935,122.146H68.22l-2.175-3.004c-0.162,0.007-0.292,0.009-0.394,0.009
			c-0.041,0-0.085-0.001-0.133-0.002c-0.047-0.002-0.096-0.004-0.147-0.007v1.867c0,0.405,0.044,0.655,0.133,0.754
			c0.12,0.139,0.3,0.208,0.54,0.208h0.251v0.175h-2.753v-0.175h0.241c0.272,0,0.466-0.088,0.583-0.265
			c0.066-0.098,0.1-0.33,0.1-0.697v-4.151c0-0.404-0.044-0.655-0.133-0.753c-0.123-0.139-0.307-0.208-0.55-0.208h-0.241v-0.175h2.34
			c0.682,0,1.186,0.049,1.509,0.149c0.324,0.1,0.599,0.283,0.825,0.55c0.226,0.267,0.338,0.585,0.338,0.955
			c0,0.395-0.129,0.737-0.386,1.028c-0.258,0.291-0.657,0.496-1.197,0.616l1.327,1.844c0.303,0.423,0.564,0.704,0.782,0.843
			s0.502,0.227,0.853,0.265V122.146z M65.372,118.844c0.06,0,0.112,0.001,0.156,0.003c0.044,0.001,0.081,0.003,0.109,0.003
			c0.613,0,1.075-0.133,1.386-0.398c0.311-0.266,0.466-0.603,0.466-1.014c0-0.401-0.125-0.727-0.377-0.979s-0.584-0.377-0.997-0.377
			c-0.183,0-0.431,0.03-0.744,0.09V118.844z"/>
		<path fill="#FFFFFF" d="M77.715,115.721l0.071,1.507h-0.18c-0.035-0.265-0.082-0.455-0.142-0.568
			c-0.098-0.183-0.229-0.318-0.391-0.406c-0.163-0.087-0.377-0.13-0.642-0.13h-0.905v4.908c0,0.395,0.043,0.642,0.129,0.739
			c0.12,0.133,0.305,0.199,0.554,0.199h0.223v0.175h-2.725v-0.175h0.227c0.272,0,0.464-0.082,0.578-0.247
			c0.069-0.101,0.104-0.332,0.104-0.692v-4.908h-0.773c-0.3,0-0.513,0.022-0.64,0.066c-0.164,0.06-0.305,0.175-0.421,0.346
			c-0.117,0.17-0.187,0.401-0.208,0.692h-0.18l0.076-1.507H77.715z"/>
		<path fill="#FFFFFF" d="M81.402,115.574c0.834,0,1.557,0.317,2.168,0.95c0.611,0.633,0.917,1.424,0.917,2.371
			c0,0.977-0.308,1.787-0.924,2.431c-0.616,0.644-1.362,0.967-2.237,0.967c-0.884,0-1.627-0.315-2.229-0.943
			c-0.601-0.629-0.903-1.442-0.903-2.44c0-1.02,0.347-1.853,1.042-2.497C79.84,115.854,80.562,115.574,81.402,115.574z
			 M81.312,115.921c-0.575,0-1.037,0.213-1.384,0.64c-0.433,0.531-0.649,1.308-0.649,2.331c0,1.049,0.224,1.856,0.673,2.421
			c0.345,0.43,0.799,0.645,1.365,0.645c0.603,0,1.102-0.235,1.495-0.706c0.394-0.471,0.59-1.213,0.59-2.227
			c0-1.099-0.216-1.919-0.649-2.459C82.405,116.135,81.925,115.921,81.312,115.921z"/>
		<path fill="#FFFFFF" d="M93.244,115.574l0.166,2.028h-0.166c-0.167-0.506-0.384-0.886-0.649-1.142
			c-0.382-0.37-0.873-0.555-1.474-0.555c-0.818,0-1.44,0.324-1.867,0.971c-0.357,0.547-0.535,1.197-0.535,1.952
			c0,0.613,0.119,1.172,0.355,1.677c0.237,0.505,0.547,0.876,0.931,1.111c0.384,0.235,0.778,0.353,1.182,0.353
			c0.237,0,0.466-0.03,0.687-0.09s0.435-0.149,0.64-0.266v-1.857c0-0.322-0.024-0.533-0.073-0.632
			c-0.049-0.1-0.125-0.175-0.227-0.227c-0.103-0.052-0.284-0.078-0.543-0.078v-0.18h2.488v0.18h-0.119
			c-0.247,0-0.415,0.082-0.507,0.247c-0.063,0.117-0.095,0.347-0.095,0.692v1.966c-0.363,0.196-0.721,0.34-1.075,0.431
			c-0.353,0.092-0.747,0.138-1.18,0.138c-1.242,0-2.185-0.398-2.829-1.194c-0.483-0.597-0.725-1.286-0.725-2.066
			c0-0.566,0.136-1.107,0.407-1.625c0.322-0.616,0.765-1.09,1.327-1.422c0.471-0.275,1.027-0.412,1.668-0.412
			c0.233,0,0.446,0.019,0.637,0.057c0.191,0.038,0.462,0.122,0.813,0.251c0.177,0.067,0.295,0.1,0.355,0.1
			c0.06,0,0.111-0.028,0.154-0.083c0.043-0.055,0.069-0.164,0.078-0.324H93.244z"/>
		<path fill="#FFFFFF" d="M99.858,120.369l0.157,0.034l-0.55,1.743H94.49v-0.175h0.241c0.272,0,0.466-0.088,0.583-0.265
			c0.067-0.102,0.1-0.335,0.1-0.702v-4.146c0-0.401-0.044-0.652-0.133-0.753c-0.123-0.139-0.307-0.208-0.55-0.208H94.49v-0.175
			h2.909v0.175c-0.342-0.003-0.58,0.028-0.718,0.094c-0.137,0.067-0.231,0.15-0.282,0.251c-0.051,0.102-0.076,0.343-0.076,0.725
			v4.037c0,0.262,0.025,0.442,0.076,0.54c0.038,0.067,0.096,0.115,0.175,0.147c0.079,0.032,0.326,0.047,0.739,0.047h0.469
			c0.493,0,0.839-0.036,1.038-0.109c0.198-0.073,0.38-0.202,0.545-0.386S99.694,120.768,99.858,120.369z"/>
		<path fill="#FFFFFF" d="M103.771,115.574c0.834,0,1.557,0.317,2.168,0.95c0.611,0.633,0.917,1.424,0.917,2.371
			c0,0.977-0.308,1.787-0.924,2.431s-1.362,0.967-2.237,0.967c-0.884,0-1.627-0.315-2.229-0.943
			c-0.601-0.629-0.903-1.442-0.903-2.44c0-1.02,0.347-1.853,1.042-2.497C102.209,115.854,102.931,115.574,103.771,115.574z
			 M103.682,115.921c-0.575,0-1.037,0.213-1.384,0.64c-0.433,0.531-0.649,1.308-0.649,2.331c0,1.049,0.224,1.856,0.673,2.421
			c0.345,0.43,0.799,0.645,1.365,0.645c0.603,0,1.102-0.235,1.495-0.706c0.394-0.471,0.59-1.213,0.59-2.227
			c0-1.099-0.216-1.919-0.649-2.459C104.774,116.135,104.294,115.921,103.682,115.921z"/>
		<path fill="#FFFFFF" d="M113.788,122.146h-1.715l-2.175-3.004c-0.162,0.007-0.292,0.009-0.394,0.009
			c-0.041,0-0.085-0.001-0.133-0.002c-0.047-0.002-0.096-0.004-0.147-0.007v1.867c0,0.405,0.044,0.655,0.133,0.754
			c0.12,0.139,0.3,0.208,0.54,0.208h0.251v0.175h-2.753v-0.175h0.241c0.272,0,0.466-0.088,0.583-0.265
			c0.066-0.098,0.1-0.33,0.1-0.697v-4.151c0-0.404-0.044-0.655-0.133-0.753c-0.123-0.139-0.307-0.208-0.55-0.208h-0.241v-0.175h2.34
			c0.682,0,1.186,0.049,1.509,0.149c0.324,0.1,0.599,0.283,0.825,0.55c0.226,0.267,0.338,0.585,0.338,0.955
			c0,0.395-0.129,0.737-0.386,1.028c-0.258,0.291-0.657,0.496-1.197,0.616l1.327,1.844c0.303,0.423,0.564,0.704,0.782,0.843
			s0.502,0.227,0.853,0.265V122.146z M109.225,118.844c0.06,0,0.112,0.001,0.156,0.003c0.044,0.001,0.081,0.003,0.109,0.003
			c0.613,0,1.075-0.133,1.386-0.398c0.311-0.266,0.466-0.603,0.466-1.014c0-0.401-0.125-0.727-0.377-0.979s-0.584-0.377-0.997-0.377
			c-0.183,0-0.431,0.03-0.744,0.09V118.844z"/>
		<path fill="#FFFFFF" d="M117.792,115.721h2.241v0.175h-0.123c-0.082,0-0.202,0.036-0.36,0.109
			c-0.158,0.073-0.302,0.177-0.431,0.313c-0.13,0.136-0.289,0.357-0.479,0.663l-1.55,2.44v1.611c0,0.395,0.044,0.642,0.133,0.739
			c0.12,0.133,0.31,0.199,0.569,0.199h0.208v0.175h-2.729v-0.175h0.227c0.271,0,0.464-0.082,0.578-0.247
			c0.07-0.101,0.104-0.332,0.104-0.692v-1.521l-1.763-2.692c-0.208-0.316-0.35-0.514-0.424-0.592
			c-0.075-0.079-0.228-0.174-0.462-0.284c-0.063-0.032-0.154-0.047-0.274-0.047v-0.175h2.748v0.175h-0.142
			c-0.148,0-0.286,0.034-0.41,0.104c-0.125,0.069-0.187,0.173-0.187,0.313c0,0.113,0.096,0.319,0.289,0.616l1.341,2.07l1.261-1.98
			c0.189-0.297,0.284-0.518,0.284-0.663c0-0.088-0.023-0.167-0.069-0.237c-0.046-0.069-0.111-0.124-0.196-0.164
			c-0.086-0.039-0.214-0.059-0.384-0.059V115.721z"/>
	</g>
</g>
</svg>
